<?xml version="1.0" encoding="UTF-8" standalone="no"?><svg xmlns="http://www.w3.org/2000/svg" xmlns:xlink="http://www.w3.org/1999/xlink" contentScriptType="application/ecmascript" contentStyleType="text/css" height="1665px" preserveAspectRatio="none" style="width:639px;height:1665px;background:#FEFEFE;" version="1.1" viewBox="0 0 639 1665" width="639px" zoomAndPan="magnify"><defs><filter height="300%" id="fphdt0v40s6z8" width="300%" x="-1" y="-1"><feGaussianBlur result="blurOut" stdDeviation="2.0"/><feColorMatrix in="blurOut" result="blurOut2" type="matrix" values="0 0 0 0 0 0 0 0 0 0 0 0 0 0 0 0 0 0 .4 0"/><feOffset dx="4.0" dy="4.0" in="blurOut2" result="blurOut3"/><feBlend in="SourceGraphic" in2="blurOut3" mode="normal"/></filter></defs><g><text fill="#000000" font-family="sans-serif" font-size="18" lengthAdjust="spacingAndGlyphs" textLength="267" x="181.5" y="29.2419">Autopilot Kernel Test Sequence</text><rect fill="#ADD8E6" filter="url(#fphdt0v40s6z8)" height="482.1782" style="stroke: #A80036; stroke-width: 1.0;" width="10" x="466" y="1029.904"/><rect fill="#FEFEFE" filter="url(#fphdt0v40s6z8)" height="148.7878" style="stroke: #000000; stroke-width: 2.0;" width="283" x="13" y="759.9981"/><rect fill="#FEFEFE" height="48.6879" style="stroke: none; stroke-width: 1.0;" width="283" x="13" y="811.4101"/><rect fill="#FEFEFE" height="48.6879" style="stroke: none; stroke-width: 1.0;" width="283" x="13" y="860.098"/><line style="stroke: #A80036; stroke-width: 1.0; stroke-dasharray: 5.0,5.0;" x1="75" x2="75" y1="106.5838" y2="1589.4942"/><line style="stroke: #A80036; stroke-width: 1.0; stroke-dasharray: 5.0,5.0;" x1="233" x2="233" y1="106.5838" y2="1589.4942"/><line style="stroke: #A80036; stroke-width: 1.0; stroke-dasharray: 5.0,5.0;" x1="346" x2="346" y1="106.5838" y2="1589.4942"/><line style="stroke: #A80036; stroke-width: 1.0; stroke-dasharray: 5.0,5.0;" x1="471" x2="471" y1="106.5838" y2="1589.4942"/><line style="stroke: #A80036; stroke-width: 1.0; stroke-dasharray: 5.0,5.0;" x1="584" x2="584" y1="106.5838" y2="1589.4942"/><rect fill="#FEFECE" filter="url(#fphdt0v40s6z8)" height="33.0679" style="stroke: #A80036; stroke-width: 1.5;" width="100" x="23" y="68.5158"/><text fill="#000000" font-family="sans-serif" font-size="14" lengthAdjust="spacingAndGlyphs" textLength="86" x="30" y="90.4818">Main Thread</text><rect fill="#FEFECE" filter="url(#fphdt0v40s6z8)" height="33.0679" style="stroke: #A80036; stroke-width: 1.5;" width="100" x="23" y="1588.4942"/><text fill="#000000" font-family="sans-serif" font-size="14" lengthAdjust="spacingAndGlyphs" textLength="86" x="30" y="1610.4602">Main Thread</text><rect fill="#FEFECE" filter="url(#fphdt0v40s6z8)" height="33.0679" style="stroke: #A80036; stroke-width: 1.5;" width="102" x="180" y="68.5158"/><text fill="#000000" font-family="sans-serif" font-size="14" lengthAdjust="spacingAndGlyphs" textLength="88" x="187" y="90.4818">Board (UART)</text><rect fill="#FEFECE" filter="url(#fphdt0v40s6z8)" height="33.0679" style="stroke: #A80036; stroke-width: 1.5;" width="102" x="180" y="1588.4942"/><text fill="#000000" font-family="sans-serif" font-size="14" lengthAdjust="spacingAndGlyphs" textLength="88" x="187" y="1610.4602">Board (UART)</text><rect fill="#FEFECE" filter="url(#fphdt0v40s6z8)" height="33.0679" style="stroke: #A80036; stroke-width: 1.5;" width="96" x="296" y="68.5158"/><text fill="#000000" font-family="sans-serif" font-size="14" lengthAdjust="spacingAndGlyphs" textLength="82" x="303" y="90.4818">Target (SSH)</text><rect fill="#FEFECE" filter="url(#fphdt0v40s6z8)" height="33.0679" style="stroke: #A80036; stroke-width: 1.5;" width="96" x="296" y="1588.4942"/><text fill="#000000" font-family="sans-serif" font-size="14" lengthAdjust="spacingAndGlyphs" textLength="82" x="303" y="1610.4602">Target (SSH)</text><rect fill="#FEFECE" filter="url(#fphdt0v40s6z8)" height="33.0679" style="stroke: #A80036; stroke-width: 1.5;" width="126" x="406" y="68.5158"/><text fill="#000000" font-family="sans-serif" font-size="14" lengthAdjust="spacingAndGlyphs" textLength="112" x="413" y="90.4818">Recovery Thread</text><rect fill="#FEFECE" filter="url(#fphdt0v40s6z8)" height="33.0679" style="stroke: #A80036; stroke-width: 1.5;" width="126" x="406" y="1588.4942"/><text fill="#000000" font-family="sans-serif" font-size="14" lengthAdjust="spacingAndGlyphs" textLength="112" x="413" y="1610.4602">Recovery Thread</text><text fill="#000000" font-family="sans-serif" font-size="14" lengthAdjust="spacingAndGlyphs" textLength="70" x="546" y="102.4818">Filesystem</text><path d="M566,51.5158 C566,41.5158 584,41.5158 584,41.5158 C584,41.5158 602,41.5158 602,51.5158 L602,77.5158 C602,87.5158 584,87.5158 584,87.5158 C584,87.5158 566,87.5158 566,77.5158 L566,51.5158 " fill="#FEFECE" filter="url(#fphdt0v40s6z8)" style="stroke: #000000; stroke-width: 1.5;"/><path d="M566,51.5158 C566,61.5158 584,61.5158 584,61.5158 C584,61.5158 602,61.5158 602,51.5158 " fill="none" style="stroke: #000000; stroke-width: 1.5;"/><text fill="#000000" font-family="sans-serif" font-size="14" lengthAdjust="spacingAndGlyphs" textLength="70" x="546" y="1603.4602">Filesystem</text><path d="M566,1617.5621 C566,1607.5621 584,1607.5621 584,1607.5621 C584,1607.5621 602,1607.5621 602,1617.5621 L602,1643.5621 C602,1653.5621 584,1653.5621 584,1653.5621 C584,1653.5621 566,1653.5621 566,1643.5621 L566,1617.5621 " fill="#FEFECE" filter="url(#fphdt0v40s6z8)" style="stroke: #000000; stroke-width: 1.5;"/><path d="M566,1617.5621 C566,1627.5621 584,1627.5621 584,1627.5621 C584,1627.5621 602,1627.5621 602,1617.5621 " fill="none" style="stroke: #000000; stroke-width: 1.5;"/><rect fill="#ADD8E6" filter="url(#fphdt0v40s6z8)" height="482.1782" style="stroke: #A80036; stroke-width: 1.0;" width="10" x="466" y="1029.904"/><rect fill="#EEEEEE" filter="url(#fphdt0v40s6z8)" height="3" style="stroke: #EEEEEE; stroke-width: 1.0;" width="624" x="3" y="138.4368"/><line style="stroke: #000000; stroke-width: 1.0;" x1="3" x2="627" y1="138.4368" y2="138.4368"/><line style="stroke: #000000; stroke-width: 1.0;" x1="3" x2="627" y1="141.4368" y2="141.4368"/><rect fill="#EEEEEE" filter="url(#fphdt0v40s6z8)" height="25.706" style="stroke: #000000; stroke-width: 2.0;" width="126" x="252" y="126.5838"/><text fill="#000000" font-family="sans-serif" font-size="13" font-weight="bold" lengthAdjust="spacingAndGlyphs" textLength="109" x="258" y="144.4808">Daemon Startup</text><polygon fill="#A80036" points="221,181.9958,231,185.9958,221,189.9958,225,185.9958" style="stroke: #A80036; stroke-width: 1.0;"/><line style="stroke: #A80036; stroke-width: 1.0;" x1="75" x2="227" y1="185.9958" y2="185.9958"/><text fill="#000000" font-family="sans-serif" font-size="13" lengthAdjust="spacingAndGlyphs" textLength="76" x="82" y="180.1868">board.boot()</text><polygon fill="#A80036" points="86,213.7018,76,217.7018,86,221.7018,82,217.7018" style="stroke: #A80036; stroke-width: 1.0;"/><line style="stroke: #A80036; stroke-width: 1.0; stroke-dasharray: 2.0,2.0;" x1="80" x2="232" y1="217.7018" y2="217.7018"/><text fill="#000000" font-family="sans-serif" font-size="13" lengthAdjust="spacingAndGlyphs" textLength="86" x="92" y="211.8928">extlinux menu</text><polygon fill="#A80036" points="221,245.4078,231,249.4078,221,253.4078,225,249.4078" style="stroke: #A80036; stroke-width: 1.0;"/><line style="stroke: #A80036; stroke-width: 1.0;" x1="75" x2="227" y1="249.4078" y2="249.4078"/><text fill="#000000" font-family="sans-serif" font-size="13" lengthAdjust="spacingAndGlyphs" textLength="134" x="82" y="243.5988">send '1' (vanilla kernel)</text><polygon fill="#A80036" points="86,277.1138,76,281.1138,86,285.1138,82,281.1138" style="stroke: #A80036; stroke-width: 1.0;"/><line style="stroke: #A80036; stroke-width: 1.0; stroke-dasharray: 2.0,2.0;" x1="80" x2="232" y1="281.1138" y2="281.1138"/><text fill="#000000" font-family="sans-serif" font-size="13" lengthAdjust="spacingAndGlyphs" textLength="76" x="92" y="275.3048">shell prompt</text><path d="M80,294.1138 L80,339.1138 L174,339.1138 L174,304.1138 L164,294.1138 L80,294.1138 " fill="#FBFB77" filter="url(#fphdt0v40s6z8)" style="stroke: #A80036; stroke-width: 1.0;"/><path d="M164,294.1138 L164,304.1138 L174,304.1138 L164,294.1138 " fill="#FBFB77" style="stroke: #A80036; stroke-width: 1.0;"/><text fill="#000000" font-family="sans-serif" font-size="13" lengthAdjust="spacingAndGlyphs" textLength="73" x="86" y="313.0109">Board ready</text><text fill="#000000" font-family="sans-serif" font-size="13" lengthAdjust="spacingAndGlyphs" textLength="56" x="86" y="330.7169">(5.15.148)</text><rect fill="#EEEEEE" filter="url(#fphdt0v40s6z8)" height="3" style="stroke: #EEEEEE; stroke-width: 1.0;" width="624" x="3" y="370.3789"/><line style="stroke: #000000; stroke-width: 1.0;" x1="3" x2="627" y1="370.3789" y2="370.3789"/><line style="stroke: #000000; stroke-width: 1.0;" x1="3" x2="627" y1="373.3789" y2="373.3789"/><rect fill="#EEEEEE" filter="url(#fphdt0v40s6z8)" height="25.706" style="stroke: #000000; stroke-width: 2.0;" width="144" x="243" y="358.5259"/><text fill="#000000" font-family="sans-serif" font-size="13" font-weight="bold" lengthAdjust="spacingAndGlyphs" textLength="127" x="249" y="376.4229">Request Processing</text><polygon fill="#A80036" points="86,413.9379,76,417.9379,86,421.9379,82,417.9379" style="stroke: #A80036; stroke-width: 1.0;"/><line style="stroke: #A80036; stroke-width: 1.0;" x1="80" x2="583" y1="417.9379" y2="417.9379"/><text fill="#000000" font-family="sans-serif" font-size="13" lengthAdjust="spacingAndGlyphs" textLength="108" x="92" y="412.1289">.request file found</text><polygon fill="#A80036" points="572,445.6439,582,449.6439,572,453.6439,576,449.6439" style="stroke: #A80036; stroke-width: 1.0;"/><line style="stroke: #A80036; stroke-width: 1.0;" x1="75" x2="578" y1="449.6439" y2="449.6439"/><text fill="#000000" font-family="sans-serif" font-size="13" lengthAdjust="spacingAndGlyphs" textLength="123" x="82" y="443.8349">move to processing/</text><polygon fill="#A80036" points="334,477.3499,344,481.3499,334,485.3499,338,481.3499" style="stroke: #A80036; stroke-width: 1.0;"/><line style="stroke: #A80036; stroke-width: 1.0;" x1="75" x2="340" y1="481.3499" y2="481.3499"/><text fill="#000000" font-family="sans-serif" font-size="13" lengthAdjust="spacingAndGlyphs" textLength="63" x="82" y="475.5409">SCP kernel</text><polygon fill="#A80036" points="86,509.056,76,513.056,86,517.056,82,513.056" style="stroke: #A80036; stroke-width: 1.0;"/><line style="stroke: #A80036; stroke-width: 1.0; stroke-dasharray: 2.0,2.0;" x1="80" x2="345" y1="513.056" y2="513.056"/><text fill="#000000" font-family="sans-serif" font-size="13" lengthAdjust="spacingAndGlyphs" textLength="101" x="92" y="507.247">upload complete</text><polygon fill="#A80036" points="334,540.762,344,544.762,334,548.762,338,544.762" style="stroke: #A80036; stroke-width: 1.0;"/><line style="stroke: #A80036; stroke-width: 1.0;" x1="75" x2="340" y1="544.762" y2="544.762"/><text fill="#000000" font-family="sans-serif" font-size="13" lengthAdjust="spacingAndGlyphs" textLength="68" x="82" y="538.953">SSH reboot</text><polygon fill="#A80036" points="86,572.468,76,576.468,86,580.468,82,576.468" style="stroke: #A80036; stroke-width: 1.0;"/><line style="stroke: #A80036; stroke-width: 1.0; stroke-dasharray: 2.0,2.0;" x1="80" x2="345" y1="576.468" y2="576.468"/><text fill="#000000" font-family="sans-serif" font-size="13" lengthAdjust="spacingAndGlyphs" textLength="108" x="92" y="570.659">connection closed</text><polygon fill="#A80036" points="221,604.174,231,608.174,221,612.174,225,608.174" style="stroke: #A80036; stroke-width: 1.0;"/><line style="stroke: #A80036; stroke-width: 1.0;" x1="75" x2="227" y1="608.174" y2="608.174"/><text fill="#000000" font-family="sans-serif" font-size="13" lengthAdjust="spacingAndGlyphs" textLength="114" x="82" y="602.365">wait extlinux menu</text><polygon fill="#A80036" points="86,635.88,76,639.88,86,643.88,82,639.88" style="stroke: #A80036; stroke-width: 1.0;"/><line style="stroke: #A80036; stroke-width: 1.0; stroke-dasharray: 2.0,2.0;" x1="80" x2="232" y1="639.88" y2="639.88"/><text fill="#000000" font-family="sans-serif" font-size="13" lengthAdjust="spacingAndGlyphs" textLength="72" x="92" y="634.071">menu ready</text><polygon fill="#A80036" points="221,667.586,231,671.586,221,675.586,225,671.586" style="stroke: #A80036; stroke-width: 1.0;"/><line style="stroke: #A80036; stroke-width: 1.0;" x1="75" x2="227" y1="671.586" y2="671.586"/><text fill="#000000" font-family="sans-serif" font-size="13" lengthAdjust="spacingAndGlyphs" textLength="119" x="82" y="665.777">send '2' (test kernel)</text><path d="M238,684.586 L238,711.586 L375,711.586 L375,694.586 L365,684.586 L238,684.586 " fill="#FBFB77" filter="url(#fphdt0v40s6z8)" style="stroke: #A80036; stroke-width: 1.0;"/><path d="M365,684.586 L365,694.586 L375,694.586 L365,684.586 " fill="#FBFB77" style="stroke: #A80036; stroke-width: 1.0;"/><text fill="#000000" font-family="sans-serif" font-size="13" lengthAdjust="spacingAndGlyphs" textLength="116" x="244" y="703.4831">Test kernel booting</text><polygon fill="#A80036" points="221,740.9981,231,744.9981,221,748.9981,225,744.9981" style="stroke: #A80036; stroke-width: 1.0;"/><line style="stroke: #A80036; stroke-width: 1.0;" x1="75" x2="227" y1="744.9981" y2="744.9981"/><text fill="#000000" font-family="sans-serif" font-size="13" lengthAdjust="spacingAndGlyphs" textLength="85" x="82" y="739.1891">monitor UART</text><path d="M13,759.9981 L76,759.9981 L76,768.9981 L66,778.9981 L13,778.9981 L13,759.9981 " fill="#EEEEEE" style="stroke: #000000; stroke-width: 1.0;"/><rect fill="none" height="148.7878" style="stroke: #000000; stroke-width: 2.0;" width="283" x="13" y="759.9981"/><text fill="#000000" font-family="sans-serif" font-size="13" font-weight="bold" lengthAdjust="spacingAndGlyphs" textLength="18" x="28" y="774.8951">alt</text><text fill="#000000" font-family="sans-serif" font-size="11" font-weight="bold" lengthAdjust="spacingAndGlyphs" textLength="77" x="91" y="773.757">[Kernel Panic]</text><polygon fill="#A80036" points="86,799.4101,76,803.4101,86,807.4101,82,803.4101" style="stroke: #A80036; stroke-width: 1.0;"/><line style="stroke: #A80036; stroke-width: 1.0; stroke-dasharray: 2.0,2.0;" x1="80" x2="232" y1="803.4101" y2="803.4101"/><text fill="#000000" font-family="sans-serif" font-size="13" lengthAdjust="spacingAndGlyphs" textLength="73" x="92" y="797.6011">Kernel panic</text><line style="stroke: #000000; stroke-width: 1.0; stroke-dasharray: 2.0,2.0;" x1="13" x2="296" y1="812.4101" y2="812.4101"/><text fill="#000000" font-family="sans-serif" font-size="11" font-weight="bold" lengthAdjust="spacingAndGlyphs" textLength="78" x="18" y="824.169">[SMMU Faults]</text><polygon fill="#A80036" points="86,848.098,76,852.098,86,856.098,82,852.098" style="stroke: #A80036; stroke-width: 1.0;"/><line style="stroke: #A80036; stroke-width: 1.0; stroke-dasharray: 2.0,2.0;" x1="80" x2="232" y1="852.098" y2="852.098"/><text fill="#000000" font-family="sans-serif" font-size="13" lengthAdjust="spacingAndGlyphs" textLength="96" x="92" y="846.289">SMMU fault (x5)</text><line style="stroke: #000000; stroke-width: 1.0; stroke-dasharray: 2.0,2.0;" x1="13" x2="296" y1="861.098" y2="861.098"/><text fill="#000000" font-family="sans-serif" font-size="11" font-weight="bold" lengthAdjust="spacingAndGlyphs" textLength="54" x="18" y="872.8569">[Timeout]</text><polygon fill="#A80036" points="86,896.7859,76,900.7859,86,904.7859,82,900.7859" style="stroke: #A80036; stroke-width: 1.0;"/><line style="stroke: #A80036; stroke-width: 1.0; stroke-dasharray: 2.0,2.0;" x1="80" x2="232" y1="900.7859" y2="900.7859"/><text fill="#000000" font-family="sans-serif" font-size="13" lengthAdjust="spacingAndGlyphs" textLength="78" x="92" y="894.9769">300s timeout</text><line style="stroke: #A80036; stroke-width: 1.0;" x1="75" x2="117" y1="939.4919" y2="939.4919"/><line style="stroke: #A80036; stroke-width: 1.0;" x1="117" x2="117" y1="939.4919" y2="952.4919"/><line style="stroke: #A80036; stroke-width: 1.0;" x1="76" x2="117" y1="952.4919" y2="952.4919"/><polygon fill="#A80036" points="86,948.4919,76,952.4919,86,956.4919,82,952.4919" style="stroke: #A80036; stroke-width: 1.0;"/><text fill="#000000" font-family="sans-serif" font-size="13" lengthAdjust="spacingAndGlyphs" textLength="102" x="82" y="933.6829">stop hyp logging</text><rect fill="#EEEEEE" filter="url(#fphdt0v40s6z8)" height="3" style="stroke: #EEEEEE; stroke-width: 1.0;" width="624" x="3" y="982.3449"/><line style="stroke: #000000; stroke-width: 1.0;" x1="3" x2="627" y1="982.3449" y2="982.3449"/><line style="stroke: #000000; stroke-width: 1.0;" x1="3" x2="627" y1="985.3449" y2="985.3449"/><rect fill="#EEEEEE" filter="url(#fphdt0v40s6z8)" height="25.706" style="stroke: #000000; stroke-width: 2.0;" width="229" x="200.5" y="970.4919"/><text fill="#000000" font-family="sans-serif" font-size="13" font-weight="bold" lengthAdjust="spacingAndGlyphs" textLength="212" x="206.5" y="988.3889">Parallel: Recovery + Log Filtering</text><polygon fill="#A80036" points="454,1025.904,464,1029.904,454,1033.904,458,1029.904" style="stroke: #A80036; stroke-width: 1.0;"/><line style="stroke: #A80036; stroke-width: 1.0;" x1="75" x2="460" y1="1029.904" y2="1029.904"/><text fill="#000000" font-family="sans-serif" font-size="13" lengthAdjust="spacingAndGlyphs" textLength="71" x="82" y="1024.095">start thread</text><path d="M420,1042.904 L420,1105.904 L517,1105.904 L517,1052.904 L507,1042.904 L420,1042.904 " fill="#FBFB77" filter="url(#fphdt0v40s6z8)" style="stroke: #A80036; stroke-width: 1.0;"/><path d="M507,1042.904 L507,1052.904 L517,1052.904 L507,1042.904 " fill="#FBFB77" style="stroke: #A80036; stroke-width: 1.0;"/><text fill="#000000" font-family="sans-serif" font-size="13" lengthAdjust="spacingAndGlyphs" textLength="76" x="426" y="1061.801">board.boot()</text><text fill="#000000" font-family="sans-serif" font-size="13" lengthAdjust="spacingAndGlyphs" textLength="64" x="426" y="1079.507">extlinux '1'</text><text fill="#000000" font-family="sans-serif" font-size="13" lengthAdjust="spacingAndGlyphs" textLength="52" x="426" y="1097.213">wait SSH</text><line style="stroke: #A80036; stroke-width: 1.0;" x1="75" x2="117" y1="1138.728" y2="1138.728"/><line style="stroke: #A80036; stroke-width: 1.0;" x1="117" x2="117" y1="1138.728" y2="1151.728"/><line style="stroke: #A80036; stroke-width: 1.0;" x1="76" x2="117" y1="1151.728" y2="1151.728"/><polygon fill="#A80036" points="86,1147.728,76,1151.728,86,1155.728,82,1151.728" style="stroke: #A80036; stroke-width: 1.0;"/><text fill="#000000" font-family="sans-serif" font-size="13" lengthAdjust="spacingAndGlyphs" textLength="112" x="82" y="1132.919">filter_mb1_start.py</text><line style="stroke: #A80036; stroke-width: 1.0;" x1="75" x2="117" y1="1183.4341" y2="1183.4341"/><line style="stroke: #A80036; stroke-width: 1.0;" x1="117" x2="117" y1="1183.4341" y2="1196.4341"/><line style="stroke: #A80036; stroke-width: 1.0;" x1="76" x2="117" y1="1196.4341" y2="1196.4341"/><polygon fill="#A80036" points="86,1192.4341,76,1196.4341,86,1200.4341,82,1196.4341" style="stroke: #A80036; stroke-width: 1.0;"/><text fill="#000000" font-family="sans-serif" font-size="13" lengthAdjust="spacingAndGlyphs" textLength="122" x="82" y="1177.625">filter_kernel_start.py</text><line style="stroke: #A80036; stroke-width: 1.0;" x1="75" x2="117" y1="1228.1401" y2="1228.1401"/><line style="stroke: #A80036; stroke-width: 1.0;" x1="117" x2="117" y1="1228.1401" y2="1241.1401"/><line style="stroke: #A80036; stroke-width: 1.0;" x1="76" x2="117" y1="1241.1401" y2="1241.1401"/><polygon fill="#A80036" points="86,1237.1401,76,1241.1401,86,1245.1401,82,1241.1401" style="stroke: #A80036; stroke-width: 1.0;"/><text fill="#000000" font-family="sans-serif" font-size="13" lengthAdjust="spacingAndGlyphs" textLength="111" x="82" y="1222.3311">filter_nvhe_bug.py</text><line style="stroke: #A80036; stroke-width: 1.0;" x1="75" x2="117" y1="1272.8461" y2="1272.8461"/><line style="stroke: #A80036; stroke-width: 1.0;" x1="117" x2="117" y1="1272.8461" y2="1285.8461"/><line style="stroke: #A80036; stroke-width: 1.0;" x1="76" x2="117" y1="1285.8461" y2="1285.8461"/><polygon fill="#A80036" points="86,1281.8461,76,1285.8461,86,1289.8461,82,1285.8461" style="stroke: #A80036; stroke-width: 1.0;"/><text fill="#000000" font-family="sans-serif" font-size="13" lengthAdjust="spacingAndGlyphs" textLength="122" x="82" y="1267.0371">filter_hyp_output.py</text><line style="stroke: #A80036; stroke-width: 1.0;" x1="75" x2="117" y1="1317.5521" y2="1317.5521"/><line style="stroke: #A80036; stroke-width: 1.0;" x1="117" x2="117" y1="1317.5521" y2="1330.5521"/><line style="stroke: #A80036; stroke-width: 1.0;" x1="76" x2="117" y1="1330.5521" y2="1330.5521"/><polygon fill="#A80036" points="86,1326.5521,76,1330.5521,86,1334.5521,82,1330.5521" style="stroke: #A80036; stroke-width: 1.0;"/><text fill="#000000" font-family="sans-serif" font-size="13" lengthAdjust="spacingAndGlyphs" textLength="128" x="82" y="1311.7431">filter_smmu_faults.py</text><line style="stroke: #A80036; stroke-width: 1.0;" x1="75" x2="117" y1="1362.2581" y2="1362.2581"/><line style="stroke: #A80036; stroke-width: 1.0;" x1="117" x2="117" y1="1362.2581" y2="1375.2581"/><line style="stroke: #A80036; stroke-width: 1.0;" x1="76" x2="117" y1="1375.2581" y2="1375.2581"/><polygon fill="#A80036" points="86,1371.2581,76,1375.2581,86,1379.2581,82,1375.2581" style="stroke: #A80036; stroke-width: 1.0;"/><text fill="#000000" font-family="sans-serif" font-size="13" lengthAdjust="spacingAndGlyphs" textLength="130" x="82" y="1356.4491">disasm_2nd_frame.py</text><polygon fill="#A80036" points="572,1402.9641,582,1406.9641,572,1410.9641,576,1406.9641" style="stroke: #A80036; stroke-width: 1.0;"/><line style="stroke: #A80036; stroke-width: 1.0;" x1="75" x2="578" y1="1406.9641" y2="1406.9641"/><text fill="#000000" font-family="sans-serif" font-size="13" lengthAdjust="spacingAndGlyphs" textLength="122" x="82" y="1401.1551">move to completed/</text><path d="M80,1419.9641 L80,1446.9641 L185,1446.9641 L185,1429.9641 L175,1419.9641 L80,1419.9641 " fill="#90EE90" filter="url(#fphdt0v40s6z8)" style="stroke: #A80036; stroke-width: 1.0;"/><path d="M175,1419.9641 L175,1429.9641 L185,1429.9641 L175,1419.9641 " fill="#90EE90" style="stroke: #A80036; stroke-width: 1.0;"/><text fill="#000000" font-family="sans-serif" font-size="13" lengthAdjust="spacingAndGlyphs" textLength="84" x="86" y="1438.8611">Results ready!</text><polygon fill="#A80036" points="454,1476.3762,464,1480.3762,454,1484.3762,458,1480.3762" style="stroke: #A80036; stroke-width: 1.0;"/><line style="stroke: #A80036; stroke-width: 1.0;" x1="75" x2="460" y1="1480.3762" y2="1480.3762"/><text fill="#000000" font-family="sans-serif" font-size="13" lengthAdjust="spacingAndGlyphs" textLength="30" x="82" y="1474.5672">join()</text><polygon fill="#A80036" points="86,1508.0822,76,1512.0822,86,1516.0822,82,1512.0822" style="stroke: #A80036; stroke-width: 1.0;"/><line style="stroke: #A80036; stroke-width: 1.0; stroke-dasharray: 2.0,2.0;" x1="80" x2="470" y1="1512.0822" y2="1512.0822"/><text fill="#000000" font-family="sans-serif" font-size="13" lengthAdjust="spacingAndGlyphs" textLength="31" x="92" y="1506.2732">done</text><path d="M80,1525.0822 L80,1570.0822 L197,1570.0822 L197,1535.0822 L187,1525.0822 L80,1525.0822 " fill="#FBFB77" filter="url(#fphdt0v40s6z8)" style="stroke: #A80036; stroke-width: 1.0;"/><path d="M187,1525.0822 L187,1535.0822 L197,1535.0822 L187,1525.0822 " fill="#FBFB77" style="stroke: #A80036; stroke-width: 1.0;"/><text fill="#000000" font-family="sans-serif" font-size="13" lengthAdjust="spacingAndGlyphs" textLength="73" x="86" y="1543.9792">Board ready</text><text fill="#000000" font-family="sans-serif" font-size="13" lengthAdjust="spacingAndGlyphs" textLength="96" x="86" y="1561.6852">for next request</text><!--MD5=[ee99cee9fa1e1d1dee45dd18c8306ae7]
@startuml autopilot_sequence
skinparam backgroundColor #FEFEFE

title Autopilot Kernel Test Sequence

participant "Main Thread" as Main
participant "Board (UART)" as Board
participant "Target (SSH)" as Target
participant "Recovery Thread" as RecoveryThread
database "Filesystem" as FS

== Daemon Startup ==

Main -> Board: board.boot()
Board - -> Main: extlinux menu
Main -> Board: send '1' (vanilla kernel)
Board - -> Main: shell prompt
note right of Main: Board ready\n(5.15.148)

== Request Processing ==

FS -> Main: .request file found
Main -> FS: move to processing/

Main -> Target: SCP kernel
Target - -> Main: upload complete

Main -> Target: SSH reboot
Target - -> Main: connection closed

Main -> Board: wait extlinux menu
Board - -> Main: menu ready
Main -> Board: send '2' (test kernel)

note right of Board: Test kernel booting

Main -> Board: monitor UART

alt Kernel Panic
    Board - -> Main: Kernel panic
else SMMU Faults
    Board - -> Main: SMMU fault (x5)
else Timeout
    Board - -> Main: 300s timeout
end

Main -> Main: stop hyp logging

== Parallel: Recovery + Log Filtering ==

Main -> RecoveryThread: start thread
activate RecoveryThread #LightBlue
note over RecoveryThread: board.boot()\nextlinux '1'\nwait SSH

Main -> Main: filter_mb1_start.py
Main -> Main: filter_kernel_start.py
Main -> Main: filter_nvhe_bug.py
Main -> Main: filter_hyp_output.py
Main -> Main: filter_smmu_faults.py
Main -> Main: disasm_2nd_frame.py

Main -> FS: move to completed/
note right of Main #LightGreen: Results ready!

Main -> RecoveryThread: join()
RecoveryThread - -> Main: done
deactivate RecoveryThread

note right of Main: Board ready\nfor next request

@enduml

PlantUML version 1.2020.02(Sun Mar 01 12:22:07 EET 2020)
(GPL source distribution)
Java Runtime: OpenJDK Runtime Environment
JVM: OpenJDK 64-Bit Server VM
Java Version: 21.0.9+10-Ubuntu-124.04
Operating System: Linux
Default Encoding: UTF-8
Language: en
Country: US
--></g></svg>