<?xml version="1.0" encoding="UTF-8" standalone="no"?>
<!DOCTYPE svg PUBLIC "-//W3C//DTD SVG 1.1//EN"
 "http://www.w3.org/Graphics/SVG/1.1/DTD/svg11.dtd">
<!-- Generated by graphviz version 2.43.0 (0)
 -->
<!-- Title: autopilot Pages: 1 -->
<svg width="968pt" height="1521pt"
 viewBox="0.00 0.00 968.17 1521.00" xmlns="http://www.w3.org/2000/svg" xmlns:xlink="http://www.w3.org/1999/xlink">
<g id="graph0" class="graph" transform="scale(1 1) rotate(0) translate(4 1517)">
<title>autopilot</title>
<polygon fill="white" stroke="transparent" points="-4,4 -4,-1517 964.17,-1517 964.17,4 -4,4"/>
<g id="clust3" class="cluster">
<title>cluster_legend</title>
<path fill="#ffffff" stroke="black" d="M98.17,-1357C98.17,-1357 238.17,-1357 238.17,-1357 244.17,-1357 250.17,-1363 250.17,-1369 250.17,-1369 250.17,-1493 250.17,-1493 250.17,-1499 244.17,-1505 238.17,-1505 238.17,-1505 98.17,-1505 98.17,-1505 92.17,-1505 86.17,-1499 86.17,-1493 86.17,-1493 86.17,-1369 86.17,-1369 86.17,-1363 92.17,-1357 98.17,-1357"/>
<text text-anchor="middle" x="168.17" y="-1492.2" font-family="Helvetica,sans-Serif" font-size="11.00">Legend</text>
</g>
<g id="clust4" class="cluster">
<title>cluster_faults</title>
<path fill="#ffffff" stroke="black" d="M270.17,-1364C270.17,-1364 446.17,-1364 446.17,-1364 452.17,-1364 458.17,-1370 458.17,-1376 458.17,-1376 458.17,-1486 458.17,-1486 458.17,-1492 452.17,-1498 446.17,-1498 446.17,-1498 270.17,-1498 270.17,-1498 264.17,-1498 258.17,-1492 258.17,-1486 258.17,-1486 258.17,-1376 258.17,-1376 258.17,-1370 264.17,-1364 270.17,-1364"/>
<text text-anchor="middle" x="358.17" y="-1485.2" font-family="Helvetica,sans-Serif" font-size="11.00">Detected Fault Types</text>
</g>
<g id="clust5" class="cluster">
<title>cluster_timeline</title>
<path fill="#ffffff" stroke="black" d="M478.17,-1379C478.17,-1379 940.17,-1379 940.17,-1379 946.17,-1379 952.17,-1385 952.17,-1391 952.17,-1391 952.17,-1471 952.17,-1471 952.17,-1477 946.17,-1483 940.17,-1483 940.17,-1483 478.17,-1483 478.17,-1483 472.17,-1483 466.17,-1477 466.17,-1471 466.17,-1471 466.17,-1391 466.17,-1391 466.17,-1385 472.17,-1379 478.17,-1379"/>
<text text-anchor="middle" x="709.17" y="-1470.2" font-family="Helvetica,sans-Serif" font-size="11.00">Parallel Execution Timeline</text>
</g>
<!-- START -->
<g id="node1" class="node">
<title>START</title>
<ellipse fill="#333333" stroke="black" cx="65.17" cy="-1421" rx="11" ry="11"/>
</g>
<!-- STARTUP -->
<g id="node3" class="node">
<title>STARTUP</title>
<path fill="#cce5ff" stroke="black" d="M102.17,-1319C102.17,-1319 28.17,-1319 28.17,-1319 22.17,-1319 16.17,-1313 16.17,-1307 16.17,-1307 16.17,-1268 16.17,-1268 16.17,-1262 22.17,-1256 28.17,-1256 28.17,-1256 102.17,-1256 102.17,-1256 108.17,-1256 114.17,-1262 114.17,-1268 114.17,-1268 114.17,-1307 114.17,-1307 114.17,-1313 108.17,-1319 102.17,-1319"/>
<text text-anchor="middle" x="65.17" y="-1307" font-family="Helvetica,sans-Serif" font-size="10.00">STARTUP</text>
<text text-anchor="middle" x="65.17" y="-1296" font-family="Helvetica,sans-Serif" font-size="10.00">─────────</text>
<text text-anchor="middle" x="65.17" y="-1285" font-family="Helvetica,sans-Serif" font-size="10.00">board.boot()</text>
<text text-anchor="middle" x="65.17" y="-1274" font-family="Helvetica,sans-Serif" font-size="10.00">extlinux &#39;1&#39;</text>
<text text-anchor="middle" x="65.17" y="-1263" font-family="Helvetica,sans-Serif" font-size="10.00">wait SSH prompt</text>
</g>
<!-- START&#45;&gt;STARTUP -->
<g id="edge1" class="edge">
<title>START&#45;&gt;STARTUP</title>
<path fill="none" stroke="black" d="M65.17,-1409.68C65.17,-1392.61 65.17,-1357.59 65.17,-1329.56"/>
<polygon fill="black" stroke="black" points="68.67,-1329.22 65.17,-1319.22 61.67,-1329.22 68.67,-1329.22"/>
<text text-anchor="middle" x="95.67" y="-1339.8" font-family="Helvetica,sans-Serif" font-size="9.00">daemon start</text>
</g>
<!-- MANUAL -->
<g id="node2" class="node">
<title>MANUAL</title>
<path fill="#ffcccc" stroke="black" d="M120.49,-273.33C120.49,-273.33 120.49,-279.67 120.49,-279.67 120.49,-282.83 117.55,-287.16 114.6,-288.31 114.6,-288.31 92.22,-297.11 92.22,-297.11 89.27,-298.27 83.16,-299.43 80,-299.43 80,-299.43 44.34,-299.43 44.34,-299.43 41.17,-299.43 35.06,-298.27 32.12,-297.11 32.12,-297.11 9.73,-288.31 9.73,-288.31 6.79,-287.16 3.84,-282.83 3.84,-279.67 3.84,-279.67 3.84,-273.33 3.84,-273.33 3.84,-270.17 6.79,-265.84 9.73,-264.69 9.73,-264.69 32.12,-255.89 32.12,-255.89 35.06,-254.73 41.17,-253.57 44.34,-253.57 44.34,-253.57 80,-253.57 80,-253.57 83.16,-253.57 89.27,-254.73 92.22,-255.89 92.22,-255.89 114.6,-264.69 114.6,-264.69 117.55,-265.84 120.49,-270.17 120.49,-273.33"/>
<path fill="none" stroke="black" d="M124.5,-272.43C124.5,-272.43 124.5,-280.57 124.5,-280.57 124.5,-284.64 120.71,-290.2 116.93,-291.69 116.93,-291.69 94.67,-300.44 94.67,-300.44 90.88,-301.93 83.02,-303.42 78.95,-303.42 78.95,-303.42 45.39,-303.42 45.39,-303.42 41.32,-303.42 33.46,-301.93 29.67,-300.44 29.67,-300.44 7.41,-291.69 7.41,-291.69 3.62,-290.2 -0.17,-284.64 -0.17,-280.57 -0.17,-280.57 -0.17,-272.43 -0.17,-272.43 -0.17,-268.36 3.62,-262.8 7.41,-261.31 7.41,-261.31 29.67,-252.56 29.67,-252.56 33.46,-251.07 41.32,-249.58 45.39,-249.58 45.39,-249.58 78.95,-249.58 78.95,-249.58 83.02,-249.58 90.88,-251.07 94.67,-252.56 94.67,-252.56 116.93,-261.31 116.93,-261.31 120.71,-262.8 124.5,-268.36 124.5,-272.43"/>
<text text-anchor="middle" x="62.17" y="-279.5" font-family="Helvetica,sans-Serif" font-size="10.00">Manual</text>
<text text-anchor="middle" x="62.17" y="-268.5" font-family="Helvetica,sans-Serif" font-size="10.00">Intervention</text>
</g>
<!-- STARTUP&#45;&gt;MANUAL -->
<g id="edge3" class="edge">
<title>STARTUP&#45;&gt;MANUAL</title>
<path fill="none" stroke="#cc0000" stroke-dasharray="5,2" d="M58.1,-1255.78C53.82,-1234.49 49.17,-1205.42 49.17,-1179.5 49.17,-1179.5 49.17,-1179.5 49.17,-416.5 49.17,-381.47 53.31,-341.69 56.92,-313.68"/>
<polygon fill="#cc0000" stroke="#cc0000" points="60.42,-313.94 58.27,-303.56 53.48,-313.01 60.42,-313.94"/>
<text text-anchor="middle" x="79.67" y="-812.8" font-family="Helvetica,sans-Serif" font-size="9.00">timeout/error</text>
</g>
<!-- READY -->
<g id="node4" class="node">
<title>READY</title>
<path fill="#d4edda" stroke="black" d="M263.17,-1210C263.17,-1210 157.17,-1210 157.17,-1210 151.17,-1210 145.17,-1204 145.17,-1198 145.17,-1198 145.17,-1159 145.17,-1159 145.17,-1153 151.17,-1147 157.17,-1147 157.17,-1147 263.17,-1147 263.17,-1147 269.17,-1147 275.17,-1153 275.17,-1159 275.17,-1159 275.17,-1198 275.17,-1198 275.17,-1204 269.17,-1210 263.17,-1210"/>
<text text-anchor="middle" x="210.17" y="-1198" font-family="Helvetica,sans-Serif" font-size="10.00">READY</text>
<text text-anchor="middle" x="210.17" y="-1187" font-family="Helvetica,sans-Serif" font-size="10.00">─────────</text>
<text text-anchor="middle" x="210.17" y="-1176" font-family="Helvetica,sans-Serif" font-size="10.00">Board running 5.15.148</text>
<text text-anchor="middle" x="210.17" y="-1165" font-family="Helvetica,sans-Serif" font-size="10.00">SSH accessible</text>
<text text-anchor="middle" x="210.17" y="-1154" font-family="Helvetica,sans-Serif" font-size="10.00">Waiting for requests</text>
</g>
<!-- STARTUP&#45;&gt;READY -->
<g id="edge2" class="edge">
<title>STARTUP&#45;&gt;READY</title>
<path fill="none" stroke="black" d="M106.72,-1255.84C123.4,-1243.53 142.78,-1229.23 160.22,-1216.36"/>
<polygon fill="black" stroke="black" points="162.64,-1218.92 168.61,-1210.17 158.49,-1213.29 162.64,-1218.92"/>
<text text-anchor="middle" x="181.17" y="-1230.8" font-family="Helvetica,sans-Serif" font-size="9.00">SSH prompt seen</text>
</g>
<!-- READY&#45;&gt;READY -->
<g id="edge4" class="edge">
<title>READY&#45;&gt;READY</title>
<path fill="none" stroke="black" d="M275.24,-1187.87C285.87,-1186.53 293.17,-1183.4 293.17,-1178.5 293.17,-1175.36 290.17,-1172.95 285.22,-1171.27"/>
<polygon fill="black" stroke="black" points="285.75,-1167.8 275.24,-1169.13 284.29,-1174.65 285.75,-1167.8"/>
<text text-anchor="middle" x="320.17" y="-1181.3" font-family="Helvetica,sans-Serif" font-size="9.00">no requests</text>
<text text-anchor="middle" x="320.17" y="-1171.3" font-family="Helvetica,sans-Serif" font-size="9.00">(poll 1s)</text>
</g>
<!-- UPLOAD -->
<g id="node5" class="node">
<title>UPLOAD</title>
<path fill="#fff3cd" stroke="black" d="M439.67,-1091C439.67,-1091 352.67,-1091 352.67,-1091 346.67,-1091 340.67,-1085 340.67,-1079 340.67,-1079 340.67,-1051 340.67,-1051 340.67,-1045 346.67,-1039 352.67,-1039 352.67,-1039 439.67,-1039 439.67,-1039 445.67,-1039 451.67,-1045 451.67,-1051 451.67,-1051 451.67,-1079 451.67,-1079 451.67,-1085 445.67,-1091 439.67,-1091"/>
<text text-anchor="middle" x="396.17" y="-1079" font-family="Helvetica,sans-Serif" font-size="10.00">UPLOAD</text>
<text text-anchor="middle" x="396.17" y="-1068" font-family="Helvetica,sans-Serif" font-size="10.00">─────────</text>
<text text-anchor="middle" x="396.17" y="-1057" font-family="Helvetica,sans-Serif" font-size="10.00">SCP kernel to</text>
<text text-anchor="middle" x="396.17" y="-1046" font-family="Helvetica,sans-Serif" font-size="10.00">/boot/Image&#45;$KVER</text>
</g>
<!-- READY&#45;&gt;UPLOAD -->
<g id="edge5" class="edge">
<title>READY&#45;&gt;UPLOAD</title>
<path fill="none" stroke="black" d="M261.49,-1146.74C287.76,-1130.98 319.64,-1111.88 345.78,-1096.2"/>
<polygon fill="black" stroke="black" points="347.63,-1099.18 354.41,-1091.03 344.03,-1093.17 347.63,-1099.18"/>
<text text-anchor="middle" x="346.67" y="-1121.8" font-family="Helvetica,sans-Serif" font-size="9.00">.request file</text>
<text text-anchor="middle" x="346.67" y="-1111.8" font-family="Helvetica,sans-Serif" font-size="9.00">found</text>
</g>
<!-- REBOOT -->
<g id="node6" class="node">
<title>REBOOT</title>
<path fill="#fff3cd" stroke="black" d="M445.17,-993C445.17,-993 347.17,-993 347.17,-993 341.17,-993 335.17,-987 335.17,-981 335.17,-981 335.17,-964 335.17,-964 335.17,-958 341.17,-952 347.17,-952 347.17,-952 445.17,-952 445.17,-952 451.17,-952 457.17,-958 457.17,-964 457.17,-964 457.17,-981 457.17,-981 457.17,-987 451.17,-993 445.17,-993"/>
<text text-anchor="middle" x="396.17" y="-981" font-family="Helvetica,sans-Serif" font-size="10.00">REBOOT</text>
<text text-anchor="middle" x="396.17" y="-970" font-family="Helvetica,sans-Serif" font-size="10.00">─────────</text>
<text text-anchor="middle" x="396.17" y="-959" font-family="Helvetica,sans-Serif" font-size="10.00">SSH reboot command</text>
</g>
<!-- UPLOAD&#45;&gt;REBOOT -->
<g id="edge6" class="edge">
<title>UPLOAD&#45;&gt;REBOOT</title>
<path fill="none" stroke="black" d="M396.17,-1038.79C396.17,-1027.74 396.17,-1014.69 396.17,-1003.17"/>
<polygon fill="black" stroke="black" points="399.67,-1003.13 396.17,-993.13 392.67,-1003.13 399.67,-1003.13"/>
<text text-anchor="middle" x="424.17" y="-1013.8" font-family="Helvetica,sans-Serif" font-size="9.00">SCP success</text>
</g>
<!-- FAILED -->
<g id="node16" class="node">
<title>FAILED</title>
<path fill="#f8d7da" stroke="black" d="M437.17,-63C437.17,-63 365.17,-63 365.17,-63 359.17,-63 353.17,-57 353.17,-51 353.17,-51 353.17,-12 353.17,-12 353.17,-6 359.17,0 365.17,0 365.17,0 437.17,0 437.17,0 443.17,0 449.17,-6 449.17,-12 449.17,-12 449.17,-51 449.17,-51 449.17,-57 443.17,-63 437.17,-63"/>
<text text-anchor="middle" x="401.17" y="-51" font-family="Helvetica,sans-Serif" font-size="10.00">FAILED</text>
<text text-anchor="middle" x="401.17" y="-40" font-family="Helvetica,sans-Serif" font-size="10.00">─────────</text>
<text text-anchor="middle" x="401.17" y="-29" font-family="Helvetica,sans-Serif" font-size="10.00">Move request to</text>
<text text-anchor="middle" x="401.17" y="-18" font-family="Helvetica,sans-Serif" font-size="10.00">failed/</text>
<text text-anchor="middle" x="401.17" y="-7" font-family="Helvetica,sans-Serif" font-size="10.00">Log error</text>
</g>
<!-- UPLOAD&#45;&gt;FAILED -->
<g id="edge7" class="edge">
<title>UPLOAD&#45;&gt;FAILED</title>
<path fill="none" stroke="#cc0000" stroke-dasharray="5,2" d="M451.95,-1045.75C483.29,-1031.62 516.17,-1008.47 516.17,-973.5 516.17,-973.5 516.17,-973.5 516.17,-134 516.17,-99.73 487.11,-74.27 458.2,-57.41"/>
<polygon fill="#cc0000" stroke="#cc0000" points="459.71,-54.25 449.27,-52.46 456.32,-60.37 459.71,-54.25"/>
<text text-anchor="middle" x="537.67" y="-529.8" font-family="Helvetica,sans-Serif" font-size="9.00">SCP error</text>
</g>
<!-- PANIC_BOOT -->
<g id="node7" class="node">
<title>PANIC_BOOT</title>
<path fill="#fff3cd" stroke="black" d="M441.17,-906C441.17,-906 351.17,-906 351.17,-906 345.17,-906 339.17,-900 339.17,-894 339.17,-894 339.17,-855 339.17,-855 339.17,-849 345.17,-843 351.17,-843 351.17,-843 441.17,-843 441.17,-843 447.17,-843 453.17,-849 453.17,-855 453.17,-855 453.17,-894 453.17,-894 453.17,-900 447.17,-906 441.17,-906"/>
<text text-anchor="middle" x="396.17" y="-894" font-family="Helvetica,sans-Serif" font-size="10.00">PANIC_BOOT</text>
<text text-anchor="middle" x="396.17" y="-883" font-family="Helvetica,sans-Serif" font-size="10.00">─────────</text>
<text text-anchor="middle" x="396.17" y="-872" font-family="Helvetica,sans-Serif" font-size="10.00">Wait extlinux menu</text>
<text text-anchor="middle" x="396.17" y="-861" font-family="Helvetica,sans-Serif" font-size="10.00">Send boot option &#39;2&#39;</text>
<text text-anchor="middle" x="396.17" y="-850" font-family="Helvetica,sans-Serif" font-size="10.00">(test kernel)</text>
</g>
<!-- REBOOT&#45;&gt;PANIC_BOOT -->
<g id="edge8" class="edge">
<title>REBOOT&#45;&gt;PANIC_BOOT</title>
<path fill="none" stroke="black" d="M396.17,-951.61C396.17,-941.4 396.17,-928.56 396.17,-916.36"/>
<polygon fill="black" stroke="black" points="399.67,-916.33 396.17,-906.33 392.67,-916.33 399.67,-916.33"/>
<text text-anchor="middle" x="422.17" y="-926.8" font-family="Helvetica,sans-Serif" font-size="9.00">reboot sent</text>
</g>
<!-- PANIC_WAIT -->
<g id="node8" class="node">
<title>PANIC_WAIT</title>
<path fill="#ffe5cc" stroke="black" d="M404.67,-787C404.67,-787 325.67,-787 325.67,-787 319.67,-787 313.67,-781 313.67,-775 313.67,-775 313.67,-703 313.67,-703 313.67,-697 319.67,-691 325.67,-691 325.67,-691 404.67,-691 404.67,-691 410.67,-691 416.67,-697 416.67,-703 416.67,-703 416.67,-775 416.67,-775 416.67,-781 410.67,-787 404.67,-787"/>
<text text-anchor="middle" x="365.17" y="-775" font-family="Helvetica,sans-Serif" font-size="10.00">PANIC_WAIT</text>
<text text-anchor="middle" x="365.17" y="-764" font-family="Helvetica,sans-Serif" font-size="10.00">─────────</text>
<text text-anchor="middle" x="365.17" y="-753" font-family="Helvetica,sans-Serif" font-size="10.00">Monitor UART for:</text>
<text text-anchor="middle" x="365.17" y="-742" font-family="Helvetica,sans-Serif" font-size="10.00">• Kernel panic</text>
<text text-anchor="middle" x="365.17" y="-731" font-family="Helvetica,sans-Serif" font-size="10.00">• SMMU faults</text>
<text text-anchor="middle" x="365.17" y="-720" font-family="Helvetica,sans-Serif" font-size="10.00">• nvgpu ACR fail</text>
<text text-anchor="middle" x="365.17" y="-709" font-family="Helvetica,sans-Serif" font-size="10.00">• bash prompt</text>
<text text-anchor="middle" x="365.17" y="-698" font-family="Helvetica,sans-Serif" font-size="10.00">• timeout</text>
</g>
<!-- PANIC_BOOT&#45;&gt;PANIC_WAIT -->
<g id="edge9" class="edge">
<title>PANIC_BOOT&#45;&gt;PANIC_WAIT</title>
<path fill="none" stroke="black" d="M373.04,-842.94C369.8,-837.24 366.96,-831.14 365.17,-825 362.61,-816.26 361.29,-806.8 360.75,-797.47"/>
<polygon fill="black" stroke="black" points="364.25,-797.33 360.46,-787.44 357.25,-797.54 364.25,-797.33"/>
<text text-anchor="middle" x="401.67" y="-812.8" font-family="Helvetica,sans-Serif" font-size="9.00">extlinux &#39;2&#39; sent</text>
</g>
<!-- PANIC_BOOT&#45;&gt;FAILED -->
<g id="edge10" class="edge">
<title>PANIC_BOOT&#45;&gt;FAILED</title>
<path fill="none" stroke="#cc0000" stroke-dasharray="5,2" d="M426.92,-842.93C431.26,-837.32 435.24,-831.25 438.17,-825 454.42,-790.34 452.17,-778.29 452.17,-740 452.17,-740 452.17,-740 452.17,-134 452.17,-109.64 448.87,-102.89 438.17,-81 436.63,-77.86 434.88,-74.72 432.99,-71.64"/>
<polygon fill="#cc0000" stroke="#cc0000" points="435.8,-69.55 427.36,-63.15 429.96,-73.42 435.8,-69.55"/>
<text text-anchor="middle" x="470.17" y="-415.3" font-family="Helvetica,sans-Serif" font-size="9.00">timeout</text>
</g>
<!-- STOP_HYP -->
<g id="node9" class="node">
<title>STOP_HYP</title>
<path fill="#e8f4e8" stroke="black" d="M409.17,-635C409.17,-635 335.17,-635 335.17,-635 329.17,-635 323.17,-629 323.17,-623 323.17,-623 323.17,-595 323.17,-595 323.17,-589 329.17,-583 335.17,-583 335.17,-583 409.17,-583 409.17,-583 415.17,-583 421.17,-589 421.17,-595 421.17,-595 421.17,-623 421.17,-623 421.17,-629 415.17,-635 409.17,-635"/>
<text text-anchor="middle" x="372.17" y="-623" font-family="Helvetica,sans-Serif" font-size="10.00">STOP_HYP_LOG</text>
<text text-anchor="middle" x="372.17" y="-612" font-family="Helvetica,sans-Serif" font-size="10.00">─────────</text>
<text text-anchor="middle" x="372.17" y="-601" font-family="Helvetica,sans-Serif" font-size="10.00">Stop hyp logging</text>
<text text-anchor="middle" x="372.17" y="-590" font-family="Helvetica,sans-Serif" font-size="10.00">thread</text>
</g>
<!-- PANIC_WAIT&#45;&gt;STOP_HYP -->
<g id="edge11" class="edge">
<title>PANIC_WAIT&#45;&gt;STOP_HYP</title>
<path fill="none" stroke="black" d="M366.35,-690.77C366.79,-678.47 367.38,-665.23 368.17,-653 368.32,-650.6 368.5,-648.13 368.69,-645.64"/>
<polygon fill="black" stroke="black" points="372.2,-645.71 369.56,-635.45 365.23,-645.12 372.2,-645.71"/>
<text text-anchor="middle" x="403.17" y="-665.8" font-family="Helvetica,sans-Serif" font-size="9.00">fault detected /</text>
<text text-anchor="middle" x="403.17" y="-655.8" font-family="Helvetica,sans-Serif" font-size="9.00">timeout (300s)</text>
</g>
<!-- FORK -->
<g id="node10" class="node">
<title>FORK</title>
<path fill="#333333" stroke="black" d="M413.17,-535C413.17,-535 309.17,-535 309.17,-535 308.17,-535 307.17,-534 307.17,-533 307.17,-533 307.17,-531 307.17,-531 307.17,-530 308.17,-529 309.17,-529 309.17,-529 413.17,-529 413.17,-529 414.17,-529 415.17,-530 415.17,-531 415.17,-531 415.17,-533 415.17,-533 415.17,-534 414.17,-535 413.17,-535"/>
</g>
<!-- STOP_HYP&#45;&gt;FORK -->
<g id="edge12" class="edge">
<title>STOP_HYP&#45;&gt;FORK</title>
<path fill="none" stroke="black" d="M368.44,-582.61C366.61,-570.08 364.47,-555.53 362.99,-545.44"/>
<polygon fill="black" stroke="black" points="366.42,-544.68 361.5,-535.3 359.49,-545.7 366.42,-544.68"/>
<text text-anchor="middle" x="396.67" y="-557.8" font-family="Helvetica,sans-Serif" font-size="9.00">spawn thread</text>
</g>
<!-- RECOVERY -->
<g id="node11" class="node">
<title>RECOVERY</title>
<path fill="#cce5ff" stroke="black" d="M210.17,-454.5C210.17,-454.5 118.17,-454.5 118.17,-454.5 112.17,-454.5 106.17,-448.5 106.17,-442.5 106.17,-442.5 106.17,-392.5 106.17,-392.5 106.17,-386.5 112.17,-380.5 118.17,-380.5 118.17,-380.5 210.17,-380.5 210.17,-380.5 216.17,-380.5 222.17,-386.5 222.17,-392.5 222.17,-392.5 222.17,-442.5 222.17,-442.5 222.17,-448.5 216.17,-454.5 210.17,-454.5"/>
<text text-anchor="middle" x="164.17" y="-442.5" font-family="Helvetica,sans-Serif" font-size="10.00">RECOVERY</text>
<text text-anchor="middle" x="164.17" y="-431.5" font-family="Helvetica,sans-Serif" font-size="10.00">(background thread)</text>
<text text-anchor="middle" x="164.17" y="-420.5" font-family="Helvetica,sans-Serif" font-size="10.00">─────────</text>
<text text-anchor="middle" x="164.17" y="-409.5" font-family="Helvetica,sans-Serif" font-size="10.00">board.boot()</text>
<text text-anchor="middle" x="164.17" y="-398.5" font-family="Helvetica,sans-Serif" font-size="10.00">extlinux &#39;1&#39;</text>
<text text-anchor="middle" x="164.17" y="-387.5" font-family="Helvetica,sans-Serif" font-size="10.00">wait SSH prompt</text>
</g>
<!-- FORK&#45;&gt;RECOVERY -->
<g id="edge13" class="edge">
<title>FORK&#45;&gt;RECOVERY</title>
<path fill="none" stroke="#0066cc" stroke-width="2" d="M357.41,-528.85C341.8,-519.94 280.63,-485.01 231.24,-456.8"/>
<polygon fill="#0066cc" stroke="#0066cc" stroke-width="2" points="232.9,-453.72 222.48,-451.8 229.43,-459.8 232.9,-453.72"/>
<text text-anchor="middle" x="335.17" y="-501.8" font-family="Helvetica,sans-Serif" font-size="9.00">1. start</text>
<text text-anchor="middle" x="335.17" y="-491.8" font-family="Helvetica,sans-Serif" font-size="9.00">thread</text>
</g>
<!-- LOG_FILTER -->
<g id="node12" class="node">
<title>LOG_FILTER</title>
<path fill="#e2d5f1" stroke="black" d="M404.17,-471C404.17,-471 318.17,-471 318.17,-471 312.17,-471 306.17,-465 306.17,-459 306.17,-459 306.17,-376 306.17,-376 306.17,-370 312.17,-364 318.17,-364 318.17,-364 404.17,-364 404.17,-364 410.17,-364 416.17,-370 416.17,-376 416.17,-376 416.17,-459 416.17,-459 416.17,-465 410.17,-471 404.17,-471"/>
<text text-anchor="middle" x="361.17" y="-459" font-family="Helvetica,sans-Serif" font-size="10.00">LOG_FILTER</text>
<text text-anchor="middle" x="361.17" y="-448" font-family="Helvetica,sans-Serif" font-size="10.00">(main thread)</text>
<text text-anchor="middle" x="361.17" y="-437" font-family="Helvetica,sans-Serif" font-size="10.00">─────────</text>
<text text-anchor="middle" x="361.17" y="-426" font-family="Helvetica,sans-Serif" font-size="10.00">filter_mb1_start</text>
<text text-anchor="middle" x="361.17" y="-415" font-family="Helvetica,sans-Serif" font-size="10.00">filter_kernel_start</text>
<text text-anchor="middle" x="361.17" y="-404" font-family="Helvetica,sans-Serif" font-size="10.00">filter_nvhe_bug</text>
<text text-anchor="middle" x="361.17" y="-393" font-family="Helvetica,sans-Serif" font-size="10.00">filter_hyp_output</text>
<text text-anchor="middle" x="361.17" y="-382" font-family="Helvetica,sans-Serif" font-size="10.00">filter_smmu_faults</text>
<text text-anchor="middle" x="361.17" y="-371" font-family="Helvetica,sans-Serif" font-size="10.00">disasm_2nd_frame</text>
</g>
<!-- FORK&#45;&gt;LOG_FILTER -->
<g id="edge14" class="edge">
<title>FORK&#45;&gt;LOG_FILTER</title>
<path fill="none" stroke="#6600cc" stroke-width="2" d="M361.17,-528.65C361.17,-522 361.17,-502.18 361.17,-481.15"/>
<polygon fill="#6600cc" stroke="#6600cc" stroke-width="2" points="364.67,-481.12 361.17,-471.12 357.67,-481.12 364.67,-481.12"/>
<text text-anchor="middle" x="381.17" y="-501.8" font-family="Helvetica,sans-Serif" font-size="9.00">2. then</text>
<text text-anchor="middle" x="381.17" y="-491.8" font-family="Helvetica,sans-Serif" font-size="9.00">continue</text>
</g>
<!-- RECOVERY&#45;&gt;MANUAL -->
<g id="edge23" class="edge">
<title>RECOVERY&#45;&gt;MANUAL</title>
<path fill="none" stroke="#cc0000" stroke-dasharray="5,2" d="M113.9,-380.46C102.52,-370.37 91.39,-358.66 83.17,-346 76.84,-336.26 72.33,-324.5 69.16,-313.51"/>
<polygon fill="#cc0000" stroke="#cc0000" points="72.52,-312.49 66.61,-303.7 65.74,-314.25 72.52,-312.49"/>
<text text-anchor="middle" x="116.67" y="-333.8" font-family="Helvetica,sans-Serif" font-size="9.00">recovery failed</text>
</g>
<!-- RECOVERY&#45;&gt;READY -->
<g id="edge22" class="edge">
<title>RECOVERY&#45;&gt;READY</title>
<path fill="none" stroke="black" stroke-dasharray="1,5" d="M167.08,-454.7C168.61,-476.74 170.17,-505.48 170.17,-531 170.17,-1066 170.17,-1066 170.17,-1066 170.17,-1090.79 179.04,-1116.95 188.42,-1137.7"/>
<polygon fill="black" stroke="black" points="185.3,-1139.29 192.74,-1146.83 191.63,-1136.3 185.3,-1139.29"/>
<text text-anchor="middle" x="200.17" y="-817.8" font-family="Helvetica,sans-Serif" font-size="9.00">recovery OK</text>
<text text-anchor="middle" x="200.17" y="-807.8" font-family="Helvetica,sans-Serif" font-size="9.00">(from failure)</text>
</g>
<!-- JOIN -->
<g id="node14" class="node">
<title>JOIN</title>
<path fill="#333333" stroke="black" d="M409.17,-206C409.17,-206 305.17,-206 305.17,-206 304.17,-206 303.17,-205 303.17,-204 303.17,-204 303.17,-202 303.17,-202 303.17,-201 304.17,-200 305.17,-200 305.17,-200 409.17,-200 409.17,-200 410.17,-200 411.17,-201 411.17,-202 411.17,-202 411.17,-204 411.17,-204 411.17,-205 410.17,-206 409.17,-206"/>
</g>
<!-- RECOVERY&#45;&gt;JOIN -->
<g id="edge17" class="edge">
<title>RECOVERY&#45;&gt;JOIN</title>
<path fill="none" stroke="#0066cc" stroke-width="2" d="M191.09,-380.33C218.56,-344.4 263.27,-288.54 307.17,-245 319.73,-232.54 335.78,-219.88 346.26,-211.99"/>
<polygon fill="#0066cc" stroke="#0066cc" stroke-width="2" points="348.34,-214.81 354.3,-206.05 344.18,-209.17 348.34,-214.81"/>
</g>
<!-- COMPLETE -->
<g id="node13" class="node">
<title>COMPLETE</title>
<path fill="#d4edda" stroke="black" d="M400.17,-308C400.17,-308 328.17,-308 328.17,-308 322.17,-308 316.17,-302 316.17,-296 316.17,-296 316.17,-257 316.17,-257 316.17,-251 322.17,-245 328.17,-245 328.17,-245 400.17,-245 400.17,-245 406.17,-245 412.17,-251 412.17,-257 412.17,-257 412.17,-296 412.17,-296 412.17,-302 406.17,-308 400.17,-308"/>
<text text-anchor="middle" x="364.17" y="-296" font-family="Helvetica,sans-Serif" font-size="10.00">COMPLETE</text>
<text text-anchor="middle" x="364.17" y="-285" font-family="Helvetica,sans-Serif" font-size="10.00">─────────</text>
<text text-anchor="middle" x="364.17" y="-274" font-family="Helvetica,sans-Serif" font-size="10.00">Move request to</text>
<text text-anchor="middle" x="364.17" y="-263" font-family="Helvetica,sans-Serif" font-size="10.00">completed/</text>
<text text-anchor="middle" x="364.17" y="-252" font-family="Helvetica,sans-Serif" font-size="10.00">Log results</text>
</g>
<!-- LOG_FILTER&#45;&gt;COMPLETE -->
<g id="edge15" class="edge">
<title>LOG_FILTER&#45;&gt;COMPLETE</title>
<path fill="none" stroke="#6600cc" stroke-width="2" d="M362.3,-363.95C362.63,-348.86 362.98,-332.62 363.29,-318.35"/>
<polygon fill="#6600cc" stroke="#6600cc" stroke-width="2" points="366.79,-318.42 363.5,-308.34 359.79,-318.27 366.79,-318.42"/>
<text text-anchor="middle" x="380.17" y="-338.8" font-family="Helvetica,sans-Serif" font-size="9.00">filtering</text>
<text text-anchor="middle" x="380.17" y="-328.8" font-family="Helvetica,sans-Serif" font-size="9.00">done</text>
</g>
<!-- COMPLETE&#45;&gt;JOIN -->
<g id="edge16" class="edge">
<title>COMPLETE&#45;&gt;JOIN</title>
<path fill="none" stroke="#6600cc" stroke-width="2" d="M361.16,-244.76C360.17,-234.68 359.13,-224.05 358.36,-216.17"/>
<polygon fill="#6600cc" stroke="#6600cc" stroke-width="2" points="361.83,-215.71 357.37,-206.1 354.86,-216.39 361.83,-215.71"/>
</g>
<!-- WAIT_RECOVERY -->
<g id="node15" class="node">
<title>WAIT_RECOVERY</title>
<path fill="#cce5ff" stroke="black" d="M400.67,-161C400.67,-161 299.67,-161 299.67,-161 293.67,-161 287.67,-155 287.67,-149 287.67,-149 287.67,-121 287.67,-121 287.67,-115 293.67,-109 299.67,-109 299.67,-109 400.67,-109 400.67,-109 406.67,-109 412.67,-115 412.67,-121 412.67,-121 412.67,-149 412.67,-149 412.67,-155 406.67,-161 400.67,-161"/>
<text text-anchor="middle" x="350.17" y="-149" font-family="Helvetica,sans-Serif" font-size="10.00">WAIT_RECOVERY</text>
<text text-anchor="middle" x="350.17" y="-138" font-family="Helvetica,sans-Serif" font-size="10.00">─────────</text>
<text text-anchor="middle" x="350.17" y="-127" font-family="Helvetica,sans-Serif" font-size="10.00">recovery_thread.join()</text>
<text text-anchor="middle" x="350.17" y="-116" font-family="Helvetica,sans-Serif" font-size="10.00">Check for exceptions</text>
</g>
<!-- JOIN&#45;&gt;WAIT_RECOVERY -->
<g id="edge18" class="edge">
<title>JOIN&#45;&gt;WAIT_RECOVERY</title>
<path fill="none" stroke="black" d="M356.93,-199.8C356.43,-195.09 355.2,-183.43 353.92,-171.34"/>
<polygon fill="black" stroke="black" points="357.38,-170.82 352.84,-161.24 350.42,-171.55 357.38,-170.82"/>
</g>
<!-- WAIT_RECOVERY&#45;&gt;READY -->
<g id="edge19" class="edge">
<title>WAIT_RECOVERY&#45;&gt;READY</title>
<path fill="none" stroke="black" d="M322.93,-161.19C312.76,-171.76 301.84,-184.68 294.17,-198 262.24,-253.41 250.17,-271.05 250.17,-335 250.17,-1066 250.17,-1066 250.17,-1066 250.17,-1090.79 241.3,-1116.95 231.91,-1137.7"/>
<polygon fill="black" stroke="black" points="228.71,-1136.3 227.6,-1146.83 235.04,-1139.29 228.71,-1136.3"/>
<text text-anchor="middle" x="277.67" y="-606.8" font-family="Helvetica,sans-Serif" font-size="9.00">recovery OK</text>
</g>
<!-- WAIT_RECOVERY&#45;&gt;FAILED -->
<g id="edge20" class="edge">
<title>WAIT_RECOVERY&#45;&gt;FAILED</title>
<path fill="none" stroke="#cc0000" stroke-dasharray="5,2" d="M346.76,-108.88C346.51,-99.77 347.43,-89.61 351.17,-81 352.65,-77.58 354.5,-74.28 356.61,-71.13"/>
<polygon fill="#cc0000" stroke="#cc0000" points="359.44,-73.19 362.72,-63.11 353.87,-68.95 359.44,-73.19"/>
<text text-anchor="middle" x="394.67" y="-83.8" font-family="Helvetica,sans-Serif" font-size="9.00">recovery exception</text>
</g>
<!-- FAILED&#45;&gt;RECOVERY -->
<g id="edge21" class="edge">
<title>FAILED&#45;&gt;RECOVERY</title>
<path fill="none" stroke="black" stroke-dasharray="1,5" d="M352.92,-32.63C283.63,-35.65 164.17,-52.65 164.17,-134 164.17,-277.5 164.17,-277.5 164.17,-277.5 164.17,-308.39 164.17,-343.14 164.17,-370.17"/>
<polygon fill="black" stroke="black" points="160.67,-370.5 164.17,-380.5 167.67,-370.5 160.67,-370.5"/>
<text text-anchor="middle" x="203.67" y="-200.8" font-family="Helvetica,sans-Serif" font-size="9.00">attempt recovery</text>
</g>
<!-- L1 -->
<g id="node17" class="node">
<title>L1</title>
<path fill="#ffffff" stroke="transparent" d="M230.17,-1477C230.17,-1477 106.17,-1477 106.17,-1477 100.17,-1477 94.17,-1471 94.17,-1465 94.17,-1465 94.17,-1377 94.17,-1377 94.17,-1371 100.17,-1365 106.17,-1365 106.17,-1365 230.17,-1365 230.17,-1365 236.17,-1365 242.17,-1371 242.17,-1377 242.17,-1377 242.17,-1465 242.17,-1465 242.17,-1471 236.17,-1477 230.17,-1477"/>
<text text-anchor="start" x="106.17" y="-1461" font-family="Helvetica,sans-Serif" font-size="10.00">───── Normal flow</text>
<text text-anchor="start" x="106.17" y="-1444" font-family="Helvetica,sans-Serif" font-size="10.00" fill="#cc0000">&#45; &#45; &#45; &#45; Error path</text>
<text text-anchor="start" x="106.17" y="-1427" font-family="Helvetica,sans-Serif" font-size="10.00">• • • • Recovery attempt</text>
<text text-anchor="start" x="106.17" y="-1410" font-family="Helvetica,sans-Serif" font-size="10.00" fill="#0066cc">━━━ Background thread</text>
<text text-anchor="start" x="106.17" y="-1393" font-family="Helvetica,sans-Serif" font-size="10.00" fill="#6600cc">━━━ Main thread</text>
<text text-anchor="start" x="106.17" y="-1376" font-family="Helvetica,sans-Serif" font-size="10.00">▬▬▬ Fork/Join bar</text>
</g>
<!-- FAULTS -->
<g id="node18" class="node">
<title>FAULTS</title>
<path fill="#ffffff" stroke="transparent" d="M438.17,-1470C438.17,-1470 278.17,-1470 278.17,-1470 272.17,-1470 266.17,-1464 266.17,-1458 266.17,-1458 266.17,-1384 266.17,-1384 266.17,-1378 272.17,-1372 278.17,-1372 278.17,-1372 438.17,-1372 438.17,-1372 444.17,-1372 450.17,-1378 450.17,-1384 450.17,-1384 450.17,-1458 450.17,-1458 450.17,-1464 444.17,-1470 438.17,-1470"/>
<text text-anchor="start" x="276.17" y="-1456" font-family="Helvetica,sans-Serif" font-size="10.00">• panic &#45; Kernel panic</text>
<text text-anchor="start" x="276.17" y="-1441" font-family="Helvetica,sans-Serif" font-size="10.00">• smmu_fault &#45; SMMU errors</text>
<text text-anchor="start" x="276.17" y="-1426" font-family="Helvetica,sans-Serif" font-size="10.00">• nvgpu_acr_fail &#45; GPU boot fail</text>
<text text-anchor="start" x="276.17" y="-1411" font-family="Helvetica,sans-Serif" font-size="10.00">• bash_prompt &#45; Emergency shell</text>
<text text-anchor="start" x="276.17" y="-1396" font-family="Helvetica,sans-Serif" font-size="10.00">• timeout &#45; No fault in 300s</text>
<text text-anchor="start" x="276.17" y="-1381" font-family="Helvetica,sans-Serif" font-size="10.00">• eof &#45; Connection lost</text>
</g>
<!-- TIMELINE -->
<g id="node19" class="node">
<title>TIMELINE</title>
<path fill="#ffffff" stroke="transparent" d="M932.67,-1455C932.67,-1455 485.67,-1455 485.67,-1455 479.67,-1455 473.67,-1449 473.67,-1443 473.67,-1443 473.67,-1399 473.67,-1399 473.67,-1393 479.67,-1387 485.67,-1387 485.67,-1387 932.67,-1387 932.67,-1387 938.67,-1387 944.67,-1393 944.67,-1399 944.67,-1399 944.67,-1443 944.67,-1443 944.67,-1449 938.67,-1455 932.67,-1455"/>
<text text-anchor="start" x="484.17" y="-1442" font-family="Helvetica,sans-Serif" font-size="10.00" fill="#0066cc">recovery:</text>
<text text-anchor="start" x="530.17" y="-1442" font-family="Helvetica,sans-Serif" font-size="10.00"> &#160;|======= board.boot() ======= extlinux ======= wait SSH =======|</text>
<text text-anchor="start" x="484.17" y="-1427" font-family="Helvetica,sans-Serif" font-size="10.00" fill="#6600cc">main: &#160;&#160;&#160;</text>
<text text-anchor="start" x="524.17" y="-1427" font-family="Helvetica,sans-Serif" font-size="10.00"> &#160;|= filter =|= disasm =|= COMPLETE =|........ join() .........|</text>
<text text-anchor="start" x="484.17" y="-1411" font-family="Helvetica,sans-Serif" font-size="10.00"> &#160;&#160;&#160;&#160;&#160;&#160;&#160;&#160;&#160;&#160;&#160;&#160;&#160;t0 &#160;&#160;&#160;&#160;&#160;&#160;&#160;&#160;&#160;&#160;t1 &#160;&#160;&#160;&#160;&#160;&#160;&#160;&#160;&#160;&#160;t2 &#160;&#160;&#160;&#160;↑ &#160;&#160;&#160;&#160;&#160;&#160;&#160;&#160;&#160;&#160;&#160;&#160;&#160;&#160;&#160;&#160;&#160;&#160;&#160;&#160;&#160;&#160;t3</text>
<text text-anchor="start" x="484.17" y="-1396" font-family="Helvetica,sans-Serif" font-size="10.00"> &#160;&#160;&#160;&#160;&#160;&#160;&#160;&#160;&#160;&#160;&#160;&#160;&#160;&#160;&#160;&#160;&#160;&#160;&#160;&#160;&#160;&#160;&#160;&#160;&#160;&#160;&#160;&#160;&#160;&#160;&#160;&#160;&#160;&#160;&#160;&#160;&#160;&#160;&#160;&#160;results ready!</text>
</g>
</g>
</svg>
